<svg width="36" height="36" viewBox="0 0 36 36" fill="none" xmlns="http://www.w3.org/2000/svg">
<g clip-path="url(#clip0_203_1263)">
<path d="M28 2H8C7.46957 2 6.96086 2.21071 6.58579 2.58579C6.21071 2.96086 6 3.46957 6 4V32C6 32.5304 6.21071 33.0391 6.58579 33.4142C6.96086 33.7893 7.46957 34 8 34H28C28.5304 34 29.0391 33.7893 29.4142 33.4142C29.7893 33.0391 30 32.5304 30 32V4C30 3.46957 29.7893 2.96086 29.4142 2.58579C29.0391 2.21071 28.5304 2 28 2ZM13 26H11V24H13V26ZM13 22H11V20H13V22ZM13 18H11V16H13V18ZM13 14H11V12H13V14ZM13 10H11V8H13V10ZM25 26H15V24H25V26ZM25 22H15V20H25V22ZM25 18H15V16H25V18ZM25 14H15V12H25V14ZM25 10H15V8H25V10Z" fill="#172554"/>
</g>
<defs>
<clipPath id="clip0_203_1263">
<rect width="36" height="36" fill="white"/>
</clipPath>
</defs>
</svg>
